<svg viewBox="0 0 1024 1024" xmlns="http://www.w3.org/2000/svg">
  <path d="M922.9 701.9H327.4l29.9-60.9 496.8-.9c16.8 0 31.2-12.2 34.2-28.6l68.8-373.6c1.7-9.3-.6-18.9-6.5-26.2-5.9-7.3-14.7-11.5-23.9-11.5H218.4l-6.5-32.6c-2.1-10.7-11.5-18.6-22.4-18.6H76c-12.6 0-22.9 10.2-22.9 22.9s10.2 22.9 22.9 22.9h95.7l23 115.1 14.2 71.1 41.2 206.4c2.1 10.7 11.5 18.6 22.4 18.6H873c12.6 0 22.9-10.2 22.9-22.9s-10.3-22.8-22.9-22.8zM369.7 288.1h467.3L789.3 593H391.6l-21.9-304.9z" fill="#666666"/>
  <path d="M419.3 776.1c-33.9 0-61.4 27.5-61.4 61.4s27.5 61.4 61.4 61.4 61.4-27.5 61.4-61.4-27.5-61.4-61.4-61.4zm0 77.4c-8.8 0-15.9-7.2-15.9-15.9s7.2-15.9 15.9-15.9 15.9 7.2 15.9 15.9-7.2 15.9-15.9 15.9z" fill="#666666"/>
  <path d="M801.1 776.1c-33.9 0-61.4 27.5-61.4 61.4s27.5 61.4 61.4 61.4 61.4-27.5 61.4-61.4-27.5-61.4-61.4-61.4zm0 77.4c-8.8 0-15.9-7.2-15.9-15.9s7.2-15.9 15.9-15.9 15.9 7.2 15.9 15.9-7.2 15.9-15.9 15.9z" fill="#666666"/>
</svg> 